<?xml version="1.0" encoding="UTF-8" standalone="no"?>
<svg
   xmlns:dc="http://purl.org/dc/elements/1.1/"
   xmlns:cc="http://creativecommons.org/ns#"
   xmlns:rdf="http://www.w3.org/1999/02/22-rdf-syntax-ns#"
   xmlns:svg="http://www.w3.org/2000/svg"
   xmlns="http://www.w3.org/2000/svg"
   viewBox="0 0 173.52933 173.52933"
   height="173.52933"
   width="173.52933"
   xml:space="preserve"
   id="svg2"
   version="1.1"><metadata
     id="metadata8"><rdf:RDF><cc:Work
         rdf:about=""><dc:format>image/svg+xml</dc:format><dc:type
           rdf:resource="http://purl.org/dc/dcmitype/StillImage" /></cc:Work></rdf:RDF></metadata><defs
     id="defs6"><clipPath
       id="clipPath22"
       clipPathUnits="userSpaceOnUse"><path
         id="path20"
         d="M 0,130.147 H 130.147 V 0 H 0 Z" /></clipPath></defs><g
     transform="matrix(1.3333333,0,0,-1.3333333,0,173.52933)"
     id="g10"><path
       id="path12"
       style="fill:#231f20;fill-opacity:1;fill-rule:nonzero;stroke:none"
       d="m 30.667,30.044 h 21.439 v 47.79 H 30.667 Z" /><path
       id="path14"
       style="fill:#231f20;fill-opacity:1;fill-rule:nonzero;stroke:none"
       d="m 4.094,30.044 h 21.44 V 99.26 H 4.094 Z" /><g
       id="g16"><g
         clip-path="url(#clipPath22)"
         id="g18"><g
           transform="translate(77.5295,39.6393)"
           id="g24"><path
             id="path26"
             style="fill:#231f20;fill-opacity:1;fill-rule:nonzero;stroke:none"
             d="m 0,0 c 0,6.301 -5.096,11.457 -11.433,11.457 -6.227,0 -11.323,-5.156 -11.323,-11.457 0,-6.301 5.096,-11.342 11.323,-11.342 C -5.096,-11.342 0,-6.301 0,0" /></g><g
           transform="translate(105.031,77.8331)"
           id="g28"><path
             id="path30"
             style="fill:#231f20;fill-opacity:1;fill-rule:nonzero;stroke:none"
             d="m 0,0 v -27.735 c 0,-2.458 -1.013,-3.687 -3.038,-3.687 -2.054,0 -3.081,1.229 -3.081,3.687 V 0 h -21.379 v -22.397 c 0,-7.889 1.853,-14.054 5.559,-18.492 4.769,-5.689 11.063,-8.27 18.879,-8.27 7.817,0 14.11,2.581 18.88,8.27 3.706,4.438 5.558,10.603 5.558,18.492 V 0 Z" /></g></g></g></g></svg>